# nacre OBJ export (provenance tessellation)
v 0 -10 0
v 1.2533323356430426 -9.921147013144779 0
v 2.486898871648548 -9.68583161128631 0
v 3.681245526846779 -9.297764858882514 0
v 4.817536741017153 -8.763066800438637 0
v 5.877852522924732 -8.090169943749475 0
v 6.845471059286886 -7.289686274214116 0
v 7.705132427757892 -6.3742398974868975 0
v 8.443279255020151 -5.3582679497899655 0
v 9.048270524660197 -4.257792915650727 0
v 9.510565162951535 -3.0901699437494745 0
v 9.822872507286887 -1.8738131458572473 0
v 9.980267284282716 -0.6279051952931353 0
v 9.980267284282716 0.627905195293134 0
v 9.822872507286887 1.873813145857246 0
v 9.510565162951536 3.090169943749471 0
v 9.048270524660195 4.257792915650727 0
v 8.44327925502015 5.358267949789969 0
v 7.705132427757892 6.3742398974868975 0
v 6.845471059286888 7.289686274214113 0
v 5.877852522924733 8.090169943749473 0
v 4.817536741017152 8.763066800438637 0
v 3.6812455268467814 9.297764858882513 0
v 2.4868988716485525 9.685831611286309 0
v 1.2533323356430452 9.921147013144777 0
v 0.0000000000000012246467991473533 10 0
v -1.2533323356430428 9.921147013144779 0
v -2.486898871648546 9.685831611286313 0
v -3.681245526846779 9.297764858882514 0
v -4.817536741017154 8.763066800438635 0
v -5.8778525229247265 8.090169943749478 0
v -6.845471059286884 7.289686274214119 0
v -7.705132427757894 6.374239897486895 0
v -8.443279255020153 5.358267949789964 0
v -9.048270524660198 4.257792915650722 0
v -9.510565162951535 3.0901699437494754 0
v -9.822872507286887 1.8738131458572462 0
v -9.980267284282716 0.627905195293132 0
v -9.980267284282716 -0.6279051952931283 0
v -9.822872507286887 -1.8738131458572427 0
v -9.510565162951536 -3.0901699437494723 0
v -9.048270524660198 -4.257792915650718 0
v -8.44327925502015 -5.358267949789967 0
v -7.705132427757896 -6.374239897486893 0
v -6.84547105928689 -7.289686274214113 0
v -5.877852522924734 -8.090169943749473 0
v -4.817536741017161 -8.763066800438631 0
v -3.6812455268467787 -9.297764858882514 0
v -2.4868988716485534 -9.685831611286309 0
v -1.2533323356430466 -9.921147013144777 0
v 0 -10 20
v 1.2533323356430426 -9.921147013144779 20
v 2.486898871648548 -9.68583161128631 20
v 3.681245526846779 -9.297764858882514 20
v 4.817536741017153 -8.763066800438637 20
v 5.877852522924732 -8.090169943749475 20
v 6.845471059286886 -7.289686274214116 20
v 7.705132427757892 -6.3742398974868975 20
v 8.443279255020151 -5.3582679497899655 20
v 9.048270524660197 -4.257792915650727 20
v 9.510565162951535 -3.0901699437494745 20
v 9.822872507286887 -1.8738131458572473 20
v 9.980267284282716 -0.6279051952931353 20
v 9.980267284282716 0.627905195293134 20
v 9.822872507286887 1.873813145857246 20
v 9.510565162951536 3.090169943749471 20
v 9.048270524660195 4.257792915650727 20
v 8.44327925502015 5.358267949789969 20
v 7.705132427757892 6.3742398974868975 20
v 6.845471059286888 7.289686274214113 20
v 5.877852522924733 8.090169943749473 20
v 4.817536741017152 8.763066800438637 20
v 3.6812455268467814 9.297764858882513 20
v 2.4868988716485525 9.685831611286309 20
v 1.2533323356430452 9.921147013144777 20
v 0.0000000000000012246467991473533 10 20
v -1.2533323356430428 9.921147013144779 20
v -2.486898871648546 9.685831611286313 20
v -3.681245526846779 9.297764858882514 20
v -4.817536741017154 8.763066800438635 20
v -5.8778525229247265 8.090169943749478 20
v -6.845471059286884 7.289686274214119 20
v -7.705132427757894 6.374239897486895 20
v -8.443279255020153 5.358267949789964 20
v -9.048270524660198 4.257792915650722 20
v -9.510565162951535 3.0901699437494754 20
v -9.822872507286887 1.8738131458572462 20
v -9.980267284282716 0.627905195293132 20
v -9.980267284282716 -0.6279051952931283 20
v -9.822872507286887 -1.8738131458572427 20
v -9.510565162951536 -3.0901699437494723 20
v -9.048270524660198 -4.257792915650718 20
v -8.44327925502015 -5.358267949789967 20
v -7.705132427757896 -6.374239897486893 20
v -6.84547105928689 -7.289686274214113 20
v -5.877852522924734 -8.090169943749473 20
v -4.817536741017161 -8.763066800438631 20
v -3.6812455268467787 -9.297764858882514 20
v -2.4868988716485534 -9.685831611286309 20
v -1.2533323356430466 -9.921147013144777 20
f 1 2 52
f 1 52 51
f 2 3 53
f 2 53 52
f 3 4 54
f 3 54 53
f 4 5 55
f 4 55 54
f 5 6 56
f 5 56 55
f 6 7 57
f 6 57 56
f 7 8 58
f 7 58 57
f 8 9 59
f 8 59 58
f 9 10 60
f 9 60 59
f 10 11 61
f 10 61 60
f 11 12 62
f 11 62 61
f 12 13 63
f 12 63 62
f 13 14 64
f 13 64 63
f 14 15 65
f 14 65 64
f 15 16 66
f 15 66 65
f 16 17 67
f 16 67 66
f 17 18 68
f 17 68 67
f 18 19 69
f 18 69 68
f 19 20 70
f 19 70 69
f 20 21 71
f 20 71 70
f 21 22 72
f 21 72 71
f 22 23 73
f 22 73 72
f 23 24 74
f 23 74 73
f 24 25 75
f 24 75 74
f 25 26 76
f 25 76 75
f 26 27 77
f 26 77 76
f 27 28 78
f 27 78 77
f 28 29 79
f 28 79 78
f 29 30 80
f 29 80 79
f 30 31 81
f 30 81 80
f 31 32 82
f 31 82 81
f 32 33 83
f 32 83 82
f 33 34 84
f 33 84 83
f 34 35 85
f 34 85 84
f 35 36 86
f 35 86 85
f 36 37 87
f 36 87 86
f 37 38 88
f 37 88 87
f 38 39 89
f 38 89 88
f 39 40 90
f 39 90 89
f 40 41 91
f 40 91 90
f 41 42 92
f 41 92 91
f 42 43 93
f 42 93 92
f 43 44 94
f 43 94 93
f 44 45 95
f 44 95 94
f 45 46 96
f 45 96 95
f 46 47 97
f 46 97 96
f 47 48 98
f 47 98 97
f 48 49 99
f 48 99 98
f 49 50 100
f 49 100 99
f 50 1 51
f 50 51 100
f 1 50 49
f 1 49 48
f 1 48 47
f 1 47 46
f 1 46 45
f 1 45 44
f 1 44 43
f 1 43 42
f 1 42 41
f 1 41 40
f 1 40 39
f 1 39 38
f 1 38 37
f 1 37 36
f 1 36 35
f 1 35 34
f 1 34 33
f 1 33 32
f 1 32 31
f 1 31 30
f 1 30 29
f 1 29 28
f 1 28 27
f 1 27 26
f 1 26 25
f 1 25 24
f 1 24 23
f 1 23 22
f 1 22 21
f 1 21 20
f 1 20 19
f 1 19 18
f 1 18 17
f 1 17 16
f 1 16 15
f 1 15 14
f 1 14 13
f 1 13 12
f 1 12 11
f 1 11 10
f 1 10 9
f 1 9 8
f 1 8 7
f 1 7 6
f 1 6 5
f 1 5 4
f 1 4 3
f 3 2 1
f 100 51 52
f 100 52 53
f 100 53 54
f 100 54 55
f 100 55 56
f 100 56 57
f 100 57 58
f 100 58 59
f 100 59 60
f 100 60 61
f 100 61 62
f 100 62 63
f 100 63 64
f 100 64 65
f 100 65 66
f 100 66 67
f 100 67 68
f 100 68 69
f 100 69 70
f 100 70 71
f 100 71 72
f 100 72 73
f 100 73 74
f 100 74 75
f 100 75 76
f 100 76 77
f 100 77 78
f 100 78 79
f 100 79 80
f 100 80 81
f 100 81 82
f 100 82 83
f 100 83 84
f 100 84 85
f 100 85 86
f 100 86 87
f 100 87 88
f 100 88 89
f 100 89 90
f 100 90 91
f 100 91 92
f 100 92 93
f 100 93 94
f 100 94 95
f 100 95 96
f 100 96 97
f 100 97 98
f 98 99 100
