# nacre OBJ export (provenance tessellation)
v 0 -10 0
v 7.071067811865475 -7.0710678118654755 0
v 10 -0.0000000000000006123233995736766 0
v 7.0710678118654755 7.071067811865475 0
v 0.0000000000000012246467991473533 10 0
v -7.071067811865475 7.071067811865477 0
v -10 0.0000000000000018369701987210296 0
v -7.071067811865477 -7.071067811865474 0
v 0 -10 20
v 7.071067811865475 -7.0710678118654755 20
v 10 -0.0000000000000006123233995736766 20
v 7.0710678118654755 7.071067811865475 20
v 0.0000000000000012246467991473533 10 20
v -7.071067811865475 7.071067811865477 20
v -10 0.0000000000000018369701987210296 20
v -7.071067811865477 -7.071067811865474 20
f 1 2 10
f 1 10 9
f 2 3 11
f 2 11 10
f 3 4 12
f 3 12 11
f 4 5 13
f 4 13 12
f 5 6 14
f 5 14 13
f 6 7 15
f 6 15 14
f 7 8 16
f 7 16 15
f 8 1 9
f 8 9 16
f 1 8 7
f 1 7 6
f 1 6 5
f 1 5 4
f 1 4 3
f 3 2 1
f 16 9 10
f 16 10 11
f 16 11 12
f 16 12 13
f 16 13 14
f 14 15 16
